<svg width="74" height="68" viewBox="0 0 74 68" fill="none" xmlns="http://www.w3.org/2000/svg">
<path fill-rule="evenodd" clip-rule="evenodd" d="M30.2461 31.5609C34.7209 30.4608 39.3967 30.4701 43.8671 31.5879L42.1271 24.7269L40.4681 24.6919L40.1941 26.7409H38.2261L37.9991 24.7269L36.1271 24.6919L35.9011 26.7409L33.9201 26.7209L33.6801 24.7079H32.0031L30.2461 31.5609Z" fill="#FC9200"/>
<path fill-rule="evenodd" clip-rule="evenodd" d="M55.127 39.11C59.718 45.75 58.127 53.871 58.127 53.871C55.405 54.2143 52.6418 54.0051 50.0026 53.2557C47.3634 52.5064 44.9025 51.2325 42.767 49.51C40.1779 47.4316 38.1833 44.7064 36.985 41.61C35.789 44.7069 33.7953 47.4324 31.206 49.51C29.0701 51.2328 26.6087 52.507 23.969 53.2565C21.3293 54.006 18.5655 54.2153 15.843 53.872C15.843 53.872 14.243 45.694 18.89 39.04C7.622 41.64 0 46.608 0 52.321C0 59.847 13.209 66.079 30.567 67.31V57.267H33.357V67.467C34.051 67.495 34.748 67.514 35.457 67.524V53.202H38.243V67.523C38.954 67.512 39.659 67.493 40.36 67.465V57.265H43.143V67.314C60.505 66.085 73.718 59.852 73.718 52.325C73.718 46.66 66.232 41.725 55.118 39.11" fill="#0055A5"/>
<path fill-rule="evenodd" clip-rule="evenodd" d="M25.0435 15.0841C19.4345 13.9969 13.6219 15.0894 8.79049 18.1391C8.84492 19.712 9.10239 21.2712 9.55648 22.7781C12.3502 20.5827 15.7284 19.2582 19.2697 18.9696C22.8111 18.681 26.3591 19.4411 29.4715 21.1551C28.7625 17.6574 29.1061 14.0281 30.4588 10.7255C31.8115 7.423 34.1126 4.59546 37.0715 2.6001C35.7799 1.71086 34.3764 0.996335 32.8975 0.475098C28.5165 4.1684 25.7078 9.39265 25.0435 15.0841ZM6.27148 26.1031C7.37417 28.7974 9.00252 31.245 11.0615 33.3031C11.5825 33.8271 12.1135 34.3281 12.6705 34.8031C14.7256 36.4968 17.0606 37.8187 19.5705 38.7091C20.6249 37.4125 21.8649 36.2786 23.2505 35.3441C20.043 34.6844 17.0747 33.1666 14.662 30.9525C12.2493 28.7385 10.4827 25.9112 9.55048 22.7721C8.3221 23.7405 7.22045 24.8596 6.27148 26.1031ZM49.1055 15.0841C48.4476 9.39041 45.6373 4.16382 41.2505 0.475098C39.7695 0.995074 38.3641 1.70967 37.0715 2.6001C40.0345 4.59201 42.3394 7.41872 43.6942 10.722C45.0489 14.0252 45.3926 17.6563 44.6815 21.1551C47.7955 19.4422 51.3444 18.683 54.8867 18.9717C58.4289 19.2605 61.808 20.5845 64.6035 22.7791C65.0419 21.2689 65.2961 19.7113 65.3605 18.1401C60.5274 15.0917 54.7145 13.9992 49.1045 15.0851M64.6035 22.7791C63.7018 25.8629 61.9805 28.6439 59.6215 30.8251C57.146 33.1312 54.0811 34.708 50.7655 35.3811C52.1514 36.3211 53.39 37.4619 54.4405 38.7661C57.0037 37.8767 59.3874 36.5366 61.4795 34.8091C62.0315 34.3311 62.5795 33.8301 63.0895 33.3091C65.1458 31.2468 66.7768 28.8005 67.8895 26.1091C66.9305 24.8738 65.8274 23.7576 64.6035 22.7841" fill="#D50037"/>
</svg>
