<svg width="56" height="56" viewBox="0 0 56 56" fill="none" xmlns="http://www.w3.org/2000/svg">
<path d="M1.35547 24.55L27.9995 2.75L54.6445 24.55" stroke="#1280D6" stroke-width="4" stroke-miterlimit="10"/>
<path d="M47.3771 17.2832V53.6162H8.62207V17.2832" stroke="#1280D6" stroke-width="4" stroke-miterlimit="10"/>
<path d="M52.4051 53.6172H3.99609" stroke="#1280D6" stroke-width="4" stroke-miterlimit="10"/>
<path d="M15.8896 24.5498H17.7546C20.4721 24.5498 23.0782 25.6293 24.9997 27.5508C26.9212 29.4723 28.0006 32.0784 28.0006 34.7958V36.6608H26.1356C23.4182 36.6608 20.8121 35.5813 18.8906 33.6598C16.9691 31.7383 15.8896 29.1322 15.8896 26.4148V24.5498Z" stroke="#1280D6" stroke-width="4" stroke-miterlimit="10"/>
<path d="M29.8653 39.083H28.0003V37.218C28.0003 35.8725 28.2653 34.5401 28.7803 33.297C29.2952 32.0539 30.0499 30.9244 31.0013 29.973C31.9527 29.0216 33.0823 28.2668 34.3254 27.7519C35.5685 27.237 36.9008 26.972 38.2463 26.972H40.1113V28.837C40.1113 31.5544 39.0318 34.1605 37.1103 36.082C35.1888 38.0035 32.5827 39.083 29.8653 39.083Z" stroke="#1280D6" stroke-width="4" stroke-miterlimit="10"/>
<path d="M27.7607 50.9759V34.2529" stroke="#1280D6" stroke-width="4" stroke-miterlimit="10"/>
</svg>
