<svg width="52" height="62" viewBox="0 0 52 62" fill="none" xmlns="http://www.w3.org/2000/svg">
<path d="M14.9336 8.65603C14.9336 6.9788 15.5999 5.37027 16.7859 4.18429C17.9718 2.99831 19.5804 2.33203 21.2576 2.33203H27.5816C28.4121 2.33203 29.2344 2.49561 30.0017 2.81342C30.7689 3.13123 31.4661 3.59705 32.0533 4.18429C32.6406 4.77153 33.1064 5.46868 33.4242 6.23594C33.742 7.0032 33.9056 7.82555 33.9056 8.65603V14.98H14.9336V8.65603Z" stroke="#1280D6" stroke-width="4" stroke-linecap="round" stroke-linejoin="round"/>
<path d="M14.9322 8.65625H8.60818C6.93095 8.65625 5.32242 9.32253 4.13644 10.5085C2.95046 11.6945 2.28418 13.303 2.28418 14.9803V52.9263C2.28418 54.6035 2.95046 56.212 4.13644 57.398C5.32242 58.584 6.93095 59.2503 8.60818 59.2503H18.0942M33.9052 8.65625H40.2292C41.9064 8.65625 43.5149 9.32253 44.7009 10.5085C45.8869 11.6945 46.5532 13.303 46.5532 14.9803V30.7913" stroke="#1280D6" stroke-width="4" stroke-linecap="round" stroke-linejoin="round"/>
<path d="M27.5811 52.925L33.9051 59.249L49.7161 43.439" stroke="#1280D6" stroke-width="4" stroke-linecap="round" stroke-linejoin="round"/>
</svg>
