<svg width="50" height="39" viewBox="0 0 50 39" fill="none" xmlns="http://www.w3.org/2000/svg">
<path d="M49.841 5.287C49.6307 4.23201 49.1639 3.24499 48.482 2.413C48.3442 2.24133 48.1963 2.07804 48.039 1.924C46.8075 0.695205 45.1397 0.00384311 43.4 0.000996642H6.56201C5.70002 -0.00114286 4.84617 0.167716 4.04988 0.4978C3.25359 0.827884 2.53068 1.31264 1.92301 1.924C1.76494 2.07993 1.61603 2.24487 1.47701 2.418C0.795887 3.24862 0.331971 4.23556 0.127009 5.29C0.0418551 5.70896 -0.00069485 6.13547 8.58027e-06 6.563V32.436C0.00470005 34.1748 0.695395 35.8415 1.92201 37.074C2.07001 37.221 2.21701 37.357 2.37401 37.49C3.55235 38.4641 5.03318 38.9973 6.56201 38.998H43.4C44.9325 38.9999 46.4169 38.4625 47.593 37.48C47.7489 37.3546 47.8982 37.2211 48.04 37.08C48.6015 36.5212 49.0566 35.8648 49.383 35.143L49.426 35.043C49.7825 34.2227 49.965 33.3374 49.962 32.443V6.563C49.9624 6.13478 49.9219 5.70751 49.841 5.287ZM3.40001 4.189C3.50744 4.03564 3.62861 3.89239 3.76201 3.761C4.12873 3.39175 4.565 3.09885 5.0456 2.89923C5.5262 2.69961 6.0416 2.59722 6.56201 2.598H43.4C43.9207 2.59574 44.4366 2.69754 44.9175 2.89743C45.3983 3.09732 45.8344 3.39126 46.2 3.762C46.3285 3.89256 46.4478 4.0319 46.557 4.179L46.839 4.558L27.179 21.696C26.5702 22.2268 25.7898 22.5193 24.982 22.5193C24.1743 22.5193 23.3938 22.2268 22.785 21.696L3.14101 4.563L3.40001 4.189ZM2.61101 32.665C2.60113 32.5894 2.59679 32.5132 2.59801 32.437V7.099L17.857 20.413L2.75201 33.58L2.61101 32.665ZM45.367 35.878C44.7686 36.2208 44.0907 36.4005 43.401 36.399H6.56201C5.8737 36.3999 5.19719 36.2203 4.60001 35.878L3.98201 35.52L19.589 21.92L21.299 23.408C22.3211 24.2989 23.6312 24.7896 24.987 24.7896C26.3429 24.7896 27.6529 24.2989 28.675 23.408L30.385 21.92L45.985 35.52L45.367 35.878ZM47.367 32.436C47.3685 32.5112 47.3648 32.5863 47.356 32.661L47.221 33.585L32.106 20.413L47.364 7.105L47.367 32.436Z" fill="black"/>
</svg>
