<svg width="63" height="58" viewBox="0 0 63 58" fill="none" xmlns="http://www.w3.org/2000/svg">
<path d="M57.8082 15.2918L48.8342 51.3198C48.5234 52.6233 47.7805 53.7831 46.7264 54.6103C45.6723 55.4376 44.3691 55.8837 43.0292 55.8758H8.0392C7.09987 55.87 6.17498 55.6441 5.33874 55.2162C4.50251 54.7883 3.77822 54.1704 3.22399 53.4119C2.66975 52.6535 2.30102 51.7757 2.14736 50.849C1.9937 49.9223 2.05941 48.9725 2.3392 48.0758L13.5502 12.0758C13.9251 10.8548 14.6803 9.78545 15.7056 9.02379C16.731 8.26214 17.9729 7.84802 19.2502 7.84182H52.0032C53.1829 7.83823 54.3371 8.18578 55.3186 8.84023C56.3002 9.49467 57.0649 10.4264 57.5152 11.5168C58.0264 12.7084 58.1294 14.0356 57.8082 15.2918Z" stroke="#1280D6" stroke-width="4" stroke-miterlimit="10"/>
<path d="M42.0176 55.8741H54.7456C55.5574 55.8742 56.3605 55.7069 57.1047 55.3825C57.8488 55.058 58.5181 54.5835 59.0704 53.9886C59.6228 53.3937 60.0465 52.6912 60.3149 51.9251C60.5834 51.1589 60.6908 50.3456 60.6306 49.5361L57.9946 13.2681" stroke="#1280D6" stroke-width="4" stroke-miterlimit="10" stroke-linecap="round" stroke-linejoin="round"/>
<path d="M25.1885 14.2798L27.9575 2.77979" stroke="#1280D6" stroke-width="4" stroke-miterlimit="10" stroke-linecap="round" stroke-linejoin="round"/>
<path d="M43.0293 14.307L45.5293 2.75" stroke="#1280D6" stroke-width="4" stroke-miterlimit="10" stroke-linecap="round" stroke-linejoin="round"/>
<path d="M19.916 29.2451H41.216" stroke="#1280D6" stroke-width="4" stroke-miterlimit="10" stroke-linecap="round" stroke-linejoin="round"/>
<path d="M17.2529 39.897H38.5529" stroke="#1280D6" stroke-width="4" stroke-miterlimit="10" stroke-linecap="round" stroke-linejoin="round"/>
</svg>
