<svg width="56" height="53" viewBox="0 0 56 53" fill="none" xmlns="http://www.w3.org/2000/svg">
<path d="M10.4053 18.0879L2.86426 28.0109L27.9993 50.0609L53.1343 28.0109L45.5943 18.0879H10.4053Z" stroke="#1280D6" stroke-width="4" stroke-miterlimit="10" stroke-linecap="round" stroke-linejoin="round"/>
<path d="M2.86426 28.085H52.9643" stroke="#1280D6" stroke-width="4" stroke-miterlimit="10" stroke-linecap="round" stroke-linejoin="round"/>
<path d="M22.9725 18.0879L16.6885 28.0109L27.9995 50.0609" stroke="#1280D6" stroke-width="4" stroke-miterlimit="10" stroke-linecap="round" stroke-linejoin="round"/>
<path d="M33.026 18.0879L39.31 28.0109L27.999 50.0609" stroke="#1280D6" stroke-width="4" stroke-miterlimit="10" stroke-linecap="round" stroke-linejoin="round"/>
<path d="M27.9995 1.75C28.8509 3.35535 30.1641 4.66855 31.7695 5.52C30.1641 6.37145 28.8509 7.68465 27.9995 9.29C27.148 7.68465 25.8348 6.37145 24.2295 5.52C25.8348 4.66855 27.148 3.35535 27.9995 1.75Z" fill="white" stroke="#1280D6"/>
<path d="M49.3647 9.29004C50.2162 10.8954 51.5294 12.2086 53.1347 13.06C51.5294 13.9115 50.2162 15.2247 49.3647 16.83C48.5133 15.2247 47.2001 13.9115 45.5947 13.06C47.2001 12.2086 48.5133 10.8954 49.3647 9.29004Z" fill="white" stroke="#1280D6"/>
<path d="M6.63426 9.29004C7.4857 10.8954 8.79891 12.2086 10.4043 13.06C8.79891 13.9115 7.4857 15.2247 6.63426 16.83C5.78281 15.2247 4.46961 13.9115 2.86426 13.06C4.46961 12.2086 5.78281 10.8954 6.63426 9.29004Z" fill="white" stroke="#1280D6"/>
</svg>
