<svg width="51" height="52" viewBox="0 0 51 52" fill="none" xmlns="http://www.w3.org/2000/svg">
<path d="M28.583 1.61816C28.583 1.61816 34.463 2.15316 41.946 9.63616C49.429 17.1192 49.963 22.9982 49.963 22.9982" stroke="#1C274C" stroke-width="1.5" stroke-linecap="round"/>
<path d="M30.3101 10.5811C30.3101 10.5811 32.8041 11.2941 36.5461 15.0351C40.2881 18.7761 41.0031 21.2711 41.0031 21.2711" stroke="#1C274C" stroke-width="1.5" stroke-linecap="round"/>
<path d="M33.913 35.9073L35.066 34.6933L32.312 32.0783L31.159 33.2923L33.913 35.9073ZM38.861 34.1823L43.698 36.9663L45.593 33.6753L40.75 30.8893L38.861 34.1823ZM44.631 42.7393L41.031 46.5263L43.785 49.1413L47.385 45.3543L44.631 42.7393ZM38.87 47.7393C35.237 48.0983 25.757 47.7923 15.47 36.9593L12.716 39.5743C23.93 51.3813 34.628 51.9743 39.245 51.5193L38.87 47.7393ZM15.47 36.9593C5.65004 26.6243 4.00804 17.9093 3.80204 14.0863L0.0100413 14.2863C0.261041 18.9683 2.24904 28.5513 12.71 39.5683L15.47 36.9593ZM18.952 20.1593L19.678 19.3943L16.924 16.7793L16.198 17.5443L18.952 20.1593ZM20.25 9.86925L17.05 5.35425L13.95 7.54625L17.15 12.0623L20.25 9.86925ZM6.25004 4.38025L2.27404 8.56425L5.02804 11.1793L9.00104 6.99725L6.25004 4.38025ZM17.573 18.8443C16.196 17.5363 16.194 17.5383 16.193 17.5443L16.186 17.5523L16.171 17.5693L16.137 17.6073C16.113 17.6343 16.087 17.6653 16.059 17.7013C16.003 17.7713 15.94 17.8583 15.874 17.9613C15.71 18.2189 15.5758 18.4943 15.474 18.7823C15.1768 19.6724 15.1033 20.622 15.26 21.5473C15.591 23.8063 17.071 26.8473 20.938 30.9143L23.69 28.2973C20.076 24.4913 19.19 22.1483 19.016 20.9973C18.9517 20.6851 18.9634 20.362 19.05 20.0553C19.068 20.0033 19.08 19.9893 19.069 20.0073C19.058 20.0253 19.052 20.0333 19.033 20.0573L18.998 20.0993L18.976 20.1243L18.963 20.1383L18.956 20.1453C18.956 20.1453 18.95 20.1523 17.573 18.8443ZM20.938 30.9143C24.794 34.9733 27.705 36.5693 29.926 36.9303C30.8513 37.1028 31.806 37.0205 32.688 36.6923C32.9759 36.5798 33.2492 36.4331 33.502 36.2553C33.5897 36.1929 33.6742 36.1262 33.755 36.0553C33.789 36.0253 33.819 35.9973 33.845 35.9723L33.881 35.9363L33.897 35.9203L33.905 35.9123C33.905 35.9123 33.905 35.9123 32.532 34.6013C31.159 33.2903 31.157 33.2913 31.159 33.2893L31.166 33.2833L31.179 33.2703L31.203 33.2463L31.25 33.1973C31.2672 33.1819 31.2852 33.1676 31.304 33.1543C31.328 33.1373 31.325 33.1433 31.293 33.1543C31.0465 33.2284 30.7847 33.2364 30.534 33.1773C29.515 33.0113 27.316 32.1123 23.69 28.2943L20.938 30.9143ZM17.05 5.35425C16.4722 4.48975 15.7082 3.76553 14.8141 3.2347C13.92 2.70386 12.9184 2.37986 11.8828 2.28647C10.8472 2.19307 9.80377 2.33264 8.8291 2.69494C7.85444 3.05724 6.97321 3.63308 6.25004 4.38025L9.00104 6.99725C9.33793 6.65626 9.74768 6.396 10.1995 6.23601C10.6514 6.07601 11.1336 6.02044 11.61 6.07346C12.0864 6.12648 12.5446 6.28671 12.9502 6.54213C13.3559 6.79756 13.6984 7.14154 13.952 7.54825L17.05 5.35425ZM3.80204 14.0863C3.79579 13.5436 3.90133 13.0054 4.11208 12.5053C4.32283 12.0052 4.63528 11.5538 5.02804 11.1793L2.27404 8.56425C1.5247 9.31279 0.937089 10.2073 0.547643 11.1922C0.158198 12.1772 -0.0247837 13.2317 0.0100413 14.2903L3.80204 14.0863ZM41.034 46.5233C40.4826 47.1753 39.714 47.6061 38.87 47.7363L39.243 51.5153C40.9955 51.2981 42.61 50.4537 43.788 49.1383L41.034 46.5233ZM19.675 19.3883C20.8485 18.1084 21.5457 16.4637 21.6495 14.7304C21.7533 12.9972 21.2574 11.281 20.245 9.87025L17.145 12.0623C17.6496 12.7555 17.9024 13.6001 17.8619 14.4565C17.8214 15.3129 17.4898 16.1298 16.922 16.7723L19.675 19.3883ZM43.697 36.9643C44.1779 37.2478 44.5903 37.6337 44.9051 38.0946C45.2199 38.5556 45.4293 39.0802 45.5183 39.6313C45.6074 40.1823 45.574 40.7462 45.4205 41.2828C45.2669 41.8195 44.9971 42.3157 44.63 42.7363L47.384 45.3523C48.1462 44.5144 48.7114 43.5159 49.0384 42.4315C49.3654 41.3472 49.4459 40.2034 49.274 39.084C49.1022 37.9645 48.6823 36.8976 48.0451 35.9613C47.4078 35.0249 46.5694 34.2429 45.591 33.6723L43.697 36.9643ZM35.066 34.6913C35.545 34.1856 36.1826 33.8591 36.8728 33.7661C37.5631 33.6731 38.2644 33.8193 38.86 34.1803L40.75 30.8893C39.4159 30.1031 37.8547 29.7924 36.3212 30.008C34.7877 30.2236 33.3727 30.9527 32.307 32.0763L35.066 34.6913Z" fill="#1C274C"/>
</svg>
