<svg width="45" height="33" viewBox="0 0 45 33" fill="none" xmlns="http://www.w3.org/2000/svg">
<path d="M28.1327 16.2859C29.7171 16.2859 31.266 15.8161 32.5834 14.9358C33.9008 14.0556 34.9276 12.8044 35.5339 11.3406C36.1402 9.87678 36.2989 8.26603 35.9898 6.71205C35.6807 5.15807 34.9177 3.73065 33.7973 2.61029C32.677 1.48993 31.2496 0.726955 29.6956 0.417849C28.1416 0.108743 26.5308 0.267387 25.067 0.87372C23.6032 1.48005 22.3521 2.50684 21.4718 3.82425C20.5915 5.14165 20.1217 6.69049 20.1217 8.27492C20.1213 9.32705 20.3283 10.3689 20.7307 11.3411C21.1332 12.3132 21.7232 13.1965 22.4672 13.9404C23.2112 14.6844 24.0944 15.2745 25.0666 15.6769C26.0387 16.0794 27.0806 16.2863 28.1327 16.2859ZM10.1087 12.2809V6.27292H6.1037V12.2809H0.0957031V16.2859H6.1037V22.2939H10.1087V16.2859H16.1167V12.2809H10.1087ZM28.1327 20.2919C22.7857 20.2919 12.1117 22.9759 12.1117 28.3029V32.3079H44.1547V28.3019C44.1547 22.9749 33.4807 20.2919 28.1327 20.2919Z" fill="white"/>
</svg>
