<svg width="31" height="36" viewBox="0 0 31 36" fill="none" xmlns="http://www.w3.org/2000/svg">
<path d="M9.22852 5.82514C9.22852 4.88097 9.60359 3.97547 10.2712 3.30784C10.9388 2.64021 11.8443 2.26514 12.7885 2.26514H16.3485C16.816 2.26514 17.2789 2.35722 17.7109 2.53613C18.1428 2.71503 18.5352 2.97726 18.8658 3.30784C19.1964 3.63841 19.4586 4.03086 19.6375 4.46278C19.8164 4.8947 19.9085 5.35763 19.9085 5.82514V9.38514H9.22852V5.82514Z" stroke="white" stroke-width="3" stroke-linecap="round" stroke-linejoin="round"/>
<path d="M9.22842 5.8252H5.66742C4.72325 5.8252 3.81775 6.20027 3.15012 6.8679C2.48249 7.53552 2.10742 8.44103 2.10742 9.3852V30.7472C2.10742 31.6914 2.48249 32.5969 3.15012 33.2645C3.81775 33.9321 4.72325 34.3072 5.66742 34.3072H11.0074M19.9074 5.8252H23.4674C24.4116 5.8252 25.3171 6.20027 25.9847 6.8679C26.6524 7.53552 27.0274 8.44103 27.0274 9.3852V18.2852" stroke="white" stroke-width="3" stroke-linecap="round" stroke-linejoin="round"/>
<path d="M16.3496 30.7472L19.9096 34.3072L28.8096 25.4072" stroke="white" stroke-width="3" stroke-linecap="round" stroke-linejoin="round"/>
</svg>
