<svg width="488" height="93" viewBox="0 0 488 93" fill="none" xmlns="http://www.w3.org/2000/svg">
<path d="M130.247 8.19399H137.543V13.378C137.543 21.058 141.047 24.418 146.567 26.002V32.29C141.383 31.522 136.487 28.978 133.943 25.714C131.495 29.17 126.599 31.858 121.223 32.818V26.53C126.887 24.85 130.247 20.818 130.247 13.378V8.19399ZM158.855 7.95399V33.202H151.559V21.154H143.015V15.01H151.559V7.95399H158.855ZM124.679 43.522C124.679 40.45 126.215 38.242 128.615 36.706C131.975 34.498 137.111 33.73 142.295 33.73C147.431 33.73 152.615 34.498 155.975 36.706C158.327 38.242 159.863 40.45 159.863 43.522C159.863 46.594 158.327 48.802 155.975 50.386C152.615 52.594 147.431 53.314 142.295 53.314C137.111 53.314 131.975 52.594 128.615 50.386C126.215 48.802 124.679 46.594 124.679 43.522ZM131.975 43.522C131.975 44.53 132.503 45.154 133.415 45.73C135.287 46.882 138.647 47.218 142.295 47.218C145.895 47.218 149.303 46.882 151.127 45.73C152.087 45.154 152.567 44.53 152.567 43.522C152.567 42.562 152.087 41.89 151.127 41.314C149.303 40.21 145.895 39.826 142.295 39.826C138.647 39.826 135.287 40.21 133.415 41.314C132.503 41.89 131.975 42.562 131.975 43.522ZM187.509 30.13H168.261V8.19399H175.509V23.986H189.045C192.741 23.986 194.949 23.506 196.485 22.402V7.95399H203.781V17.266H209.877V23.554H203.781V32.77H196.485V28.258C194.901 29.506 192.213 30.13 187.509 30.13ZM203.781 52.738H170.565V34.69H203.781V52.738ZM196.533 46.786V40.738H177.861V46.786H196.533ZM226.195 40.594C223.939 44.77 218.755 48.226 213.379 49.474V43.042C218.515 40.738 222.547 36.898 222.547 24.466V8.43399H229.843V24.466C229.843 36.898 233.827 40.69 239.059 43.042V49.474C233.635 48.226 228.547 44.722 226.195 40.594ZM243.667 7.95399H250.963V52.258H243.667V7.95399ZM267.041 29.026C267.041 38.05 267.233 41.842 268.145 43.282C268.481 43.762 268.961 44.002 269.441 44.002C270.017 44.002 270.449 43.762 270.785 43.282C271.649 41.842 271.889 38.05 271.889 29.026C271.889 20.002 271.649 16.21 270.785 14.818C270.449 14.29 270.017 14.098 269.441 14.098C268.961 14.098 268.481 14.29 268.145 14.818C267.233 16.21 267.041 20.002 267.041 29.026ZM260.369 29.026C260.369 18.226 261.233 12.802 263.921 10.066C265.169 8.72199 267.041 8.00199 269.441 8.00199C271.889 8.00199 273.713 8.72199 275.057 10.066C277.313 12.418 278.273 16.834 278.513 24.946H281.777V8.19399H288.497V51.874H281.777V31.186H278.561C278.417 40.594 277.457 45.49 275.057 47.986C273.713 49.378 271.889 50.002 269.441 50.002C267.041 50.002 265.169 49.378 263.921 47.986C261.233 45.298 260.369 39.874 260.369 29.026ZM297.713 7.95399V52.258H290.849V7.95399H297.713ZM324.831 49.378H307.263V8.43399H314.511V43.282H325.119C328.239 43.282 330.783 43.138 332.799 42.562V48.466C330.783 49.186 328.047 49.378 324.831 49.378ZM335.823 29.17H323.583V22.882H335.823V7.95399H343.119V52.258H335.823V29.17ZM352.862 14.866V8.72199H377.15V14.866H368.654V24.754C368.654 37.09 372.542 40.834 377.534 43.042V49.474C372.302 48.226 367.454 44.722 365.006 40.69C362.51 44.77 357.566 48.274 352.43 49.474V43.042C357.374 40.882 361.31 37.09 361.31 24.754V14.866H352.862ZM381.902 7.95399H389.198V52.258H381.902V7.95399ZM428.748 28.21H436.14V34.45H421.5V44.242H437.58V50.434H398.028V44.242H414.204V34.45H399.468V28.21H405.66V14.914H400.188V8.72199H435.372V14.914H429.852V21.154C429.852 23.794 429.516 26.482 428.748 28.21ZM422.604 14.914H412.956V28.21H421.644C422.316 26.578 422.604 24.034 422.604 21.682V14.914ZM463.546 30.13H445.258V8.43399H466.858V13.81H452.362V16.498H465.85V21.874H452.362V24.802H463.834C466.33 24.802 468.538 24.754 470.602 24.226V29.314C468.538 29.986 466.186 30.13 463.546 30.13ZM474.106 21.97H467.338V15.682H474.106V7.95399H481.402V31.09H474.106V21.97ZM481.402 45.442H455.05V47.506H481.93V52.738H447.754V40.21H474.106V38.146H447.754V32.818H481.402V45.442Z" fill="black"/>
<path d="M135.329 82.3279C135.329 84.7409 133.524 86.5649 130.313 86.5649C127.083 86.5649 125.278 84.7409 125.278 82.3279V81.9289H126.912V82.3469C126.912 83.9619 128.166 85.1399 130.313 85.1399C132.422 85.1399 133.695 83.9619 133.695 82.3469C133.695 80.9599 132.821 79.9529 130.883 79.5539L128.964 79.1549C126.646 78.6799 125.278 77.4069 125.278 75.2029C125.278 72.9989 126.912 71.1749 130.028 71.1749C133.125 71.1749 134.778 72.9989 134.778 75.2029V75.4879H133.125V75.2029C133.125 73.6639 132.023 72.6189 130.028 72.6189C128.033 72.6189 126.912 73.6639 126.912 75.2029C126.912 76.6089 127.786 77.3879 129.477 77.7489L131.396 78.1479C133.999 78.6989 135.329 80.0859 135.329 82.3279ZM137.646 86.3179V71.4219H146.234V72.8659H139.299V77.9579H145.474V79.4209H139.299V84.8929H146.348V86.3179H137.646ZM153.931 86.5649C150.226 86.5649 148.554 84.2659 148.554 80.8079V71.4219H150.188V80.5989C150.188 83.5059 151.271 85.1399 153.931 85.1399C156.572 85.1399 157.636 83.5059 157.636 80.5989V71.4219H159.289V80.8079C159.289 84.2659 157.636 86.5649 153.931 86.5649ZM172.418 86.3179H170.765L163.754 74.4239V86.3179H162.101V71.4219H163.754L170.765 83.3159V71.4219H172.418V86.3179ZM174.912 78.8699C174.912 74.6139 176.185 71.1749 180.574 71.1749C183.956 71.1749 185.894 73.2269 186.084 76.3239H184.45C184.279 74.0439 182.968 72.6189 180.574 72.6189C177.496 72.6189 176.565 75.0129 176.565 78.8699C176.565 83.1259 177.686 85.1209 180.574 85.1209C182.968 85.1209 184.488 83.5439 184.488 80.9029V80.1429H180.688V78.6989H186.103V86.3179H184.887L184.602 84.3419C184.032 85.6149 182.588 86.5649 180.498 86.5649C176.071 86.5649 174.912 82.9739 174.912 78.8699ZM204.74 86.3179H203.087L196.076 74.4239V86.3179H194.423V71.4219H196.076L203.087 83.3159V71.4219H204.74V86.3179ZM211.623 71.4219H213.523L218.729 86.3179H217.019L215.822 82.7839H209.324L208.127 86.3179H206.398L211.623 71.4219ZM215.309 81.3399L212.573 73.1319L209.799 81.3399H215.309ZM228.588 86.3179H226.821L222.071 74.9179V86.3179H220.418V71.4219H222.261L227.695 84.4559L233.148 71.4219H234.991V86.3179H233.338V74.9179L228.588 86.3179ZM248.669 86.5649C244.261 86.5649 243.007 83.1639 243.007 78.8699C243.007 74.6139 244.28 71.1749 248.669 71.1749C252.051 71.1749 253.989 73.2269 254.179 76.3239H252.545C252.374 74.0439 251.063 72.6189 248.669 72.6189C245.534 72.6189 244.66 75.0509 244.66 78.8699C244.66 82.8219 245.648 85.1209 248.669 85.1209C251.063 85.1209 252.374 83.7149 252.545 81.4349H254.179C253.989 84.5319 252.051 86.5649 248.669 86.5649ZM258.271 71.4219V86.3179H256.618V71.4219H258.271ZM260.061 72.8659V71.4219H270.416V72.8659H266.065V86.3179H264.412V72.8659H260.061ZM276.992 78.8509L281.21 71.4219H282.958L277.828 80.4469V86.3179H276.175V80.4469L271.064 71.4219H272.812L276.992 78.8509ZM290.276 86.3179V71.4219H298.864V72.8659H291.929V77.9579H298.104V79.4209H291.929V84.8929H298.978V86.3179H290.276ZM311.596 86.3179H309.943L302.932 74.4239V86.3179H301.279V71.4219H302.932L309.943 83.3159V71.4219H311.596V86.3179ZM314.527 86.3179V71.4219H323.115V72.8659H316.18V77.9579H322.355V79.4209H316.18V84.8929H323.229V86.3179H314.527ZM335.904 86.3179H334.232C334.118 85.9569 334.042 85.5389 334.004 84.9689C333.795 81.7199 333.852 80.4469 330.755 80.4469H327.164V86.3179H325.511V71.4219H331.154C334.27 71.4219 335.809 73.0749 335.809 75.8489C335.809 77.8439 334.935 79.2309 333.092 79.7059C334.65 79.9909 335.353 80.9029 335.505 82.8599C335.6 84.1139 335.657 85.5199 335.904 86.3179ZM327.164 79.0029H330.945C332.997 79.0029 334.137 77.9959 334.137 75.9439C334.137 73.8729 332.997 72.8659 330.945 72.8659H327.164V79.0029ZM337.766 78.8699C337.766 74.6139 339.039 71.1749 343.428 71.1749C346.81 71.1749 348.748 73.2269 348.938 76.3239H347.304C347.133 74.0439 345.822 72.6189 343.428 72.6189C340.35 72.6189 339.419 75.0129 339.419 78.8699C339.419 83.1259 340.54 85.1209 343.428 85.1209C345.822 85.1209 347.342 83.5439 347.342 80.9029V80.1429H343.542V78.6989H348.957V86.3179H347.741L347.456 84.3419C346.886 85.6149 345.442 86.5649 343.352 86.5649C338.925 86.5649 337.766 82.9739 337.766 78.8699ZM355.59 78.8509L359.808 71.4219H361.556L356.426 80.4469V86.3179H354.773V80.4469L349.662 71.4219H351.41L355.59 78.8509ZM370.527 79.1739H374.308C376.417 79.1739 377.5 77.9769 377.5 76.0199C377.5 74.0439 376.417 72.8659 374.308 72.8659H370.527V79.1739ZM374.479 80.6179H370.527V86.3179H368.874V71.4219H374.479C377.5 71.4219 379.153 73.1699 379.153 76.0199C379.153 78.8699 377.5 80.6179 374.479 80.6179ZM392.138 78.8699C392.138 83.1829 390.884 86.5649 386.457 86.5649C382.068 86.5649 380.795 83.1639 380.795 78.8699C380.795 74.6329 382.049 71.1749 386.457 71.1749C390.922 71.1749 392.138 74.6139 392.138 78.8699ZM390.504 78.8699C390.504 75.0509 389.573 72.6189 386.457 72.6189C383.36 72.6189 382.448 75.0319 382.448 78.8699C382.448 82.7269 383.341 85.1209 386.457 85.1209C389.592 85.1209 390.504 82.7079 390.504 78.8699ZM405.021 86.3179H403.349C403.235 85.9569 403.159 85.5389 403.121 84.9689C402.912 81.7199 402.969 80.4469 399.872 80.4469H396.281V86.3179H394.628V71.4219H400.271C403.387 71.4219 404.926 73.0749 404.926 75.8489C404.926 77.8439 404.052 79.2309 402.209 79.7059C403.767 79.9909 404.47 80.9029 404.622 82.8599C404.717 84.1139 404.774 85.5199 405.021 86.3179ZM396.281 79.0029H400.062C402.114 79.0029 403.254 77.9959 403.254 75.9439C403.254 73.8729 402.114 72.8659 400.062 72.8659H396.281V79.0029ZM405.864 72.8659V71.4219H416.219V72.8659H411.868V86.3179H410.215V72.8659H405.864ZM420.809 71.4219H422.709L427.915 86.3179H426.205L425.008 82.7839H418.51L417.313 86.3179H415.584L420.809 71.4219ZM424.495 81.3399L421.759 73.1319L418.985 81.3399H424.495ZM429.604 86.3179V71.4219H431.257V84.8929H438.306V86.3179H429.604Z" fill="black"/>
<path fill-rule="evenodd" clip-rule="evenodd" d="M41.835 42.8329C47.9949 41.319 54.4314 41.3324 60.585 42.8719L58.185 33.4279L55.902 33.3799L55.525 36.1999H52.82L52.508 33.4279L49.931 33.3799L49.62 36.1999L46.893 36.1749L46.563 33.4039H44.253L41.835 42.8329Z" fill="#FC9200"/>
<path fill-rule="evenodd" clip-rule="evenodd" d="M76.0851 53.2299C82.4051 62.3699 80.2151 73.5489 80.2151 73.5489C76.4684 74.0216 72.6648 73.7339 69.0319 72.703C65.3989 71.672 62.0111 69.9191 59.0711 67.5489C55.5074 64.6882 52.7619 60.9375 51.1121 56.6759C49.4659 60.9381 46.7218 64.6893 43.1581 67.5489C40.2181 69.919 36.8303 71.6719 33.1973 72.7028C29.5644 73.7337 25.7608 74.0215 22.0141 73.5489C22.0141 73.5489 19.8061 62.2879 26.2031 53.1299C10.6921 56.7059 0.203125 63.5479 0.203125 71.4119C0.203125 81.7719 18.3851 90.3499 42.2791 92.0449V78.2179H46.1191V92.2569C47.0741 92.2949 48.0341 92.3219 49.0041 92.3359V72.6229H52.8431V92.3369C53.8221 92.3219 54.7921 92.2959 55.7571 92.2569V78.2179H59.5971V92.0489C83.4971 90.3569 101.685 81.7779 101.685 71.4159C101.685 63.6159 91.3801 56.8289 76.0851 53.2249" fill="#0055A5"/>
<path fill-rule="evenodd" clip-rule="evenodd" d="M34.672 20.152C26.9512 18.6559 18.9504 20.1601 12.3 24.358C12.3748 26.5232 12.7291 28.6696 13.354 30.744C17.1996 27.7229 21.849 25.9001 26.7232 25.5025C31.5973 25.1049 36.4807 26.1501 40.765 28.508C39.7899 23.6929 40.2638 18.6967 42.1268 14.1508C43.9898 9.60485 47.1583 5.71304 51.232 2.96699C49.4531 1.74271 47.52 0.759181 45.483 0.0419922C39.4522 5.12582 35.586 12.3174 34.672 20.152ZM8.83203 35.32C10.3495 39.0306 12.5911 42.4015 15.426 45.236C16.143 45.957 16.875 46.647 17.64 47.304C20.4695 49.6358 23.6845 51.4554 27.14 52.681C28.5912 50.8959 30.2979 49.3347 32.205 48.048C27.7914 47.1388 23.7072 45.0492 20.3875 42.0019C17.0677 38.9546 14.6369 35.0638 13.354 30.744C11.6608 32.0736 10.1415 33.611 8.83203 35.32ZM67.795 20.152C66.8891 12.3142 63.0202 5.11947 56.981 0.0419922C54.9436 0.758009 53.0103 1.74162 51.232 2.96699C55.3101 5.70918 58.4824 9.60028 60.3469 14.1472C62.2113 18.6941 62.684 23.6922 61.705 28.508C65.992 26.1495 70.878 25.104 75.7548 25.5016C80.6315 25.8991 85.2837 27.7223 89.132 30.744C89.7359 28.6652 90.0861 26.5209 90.175 24.358C83.5222 20.1616 75.5205 18.6576 67.798 20.152M89.132 30.744C87.8915 34.9896 85.5211 38.8186 82.274 41.822C78.8653 44.9964 74.6451 47.1664 70.08 48.092C71.9875 49.3858 73.6921 50.956 75.138 52.751C78.6666 51.5264 81.9482 49.6814 84.828 47.303C85.588 46.645 86.336 45.956 87.044 45.235C89.8755 42.3948 92.1207 39.0256 93.652 35.319C92.332 33.6189 90.8136 32.0827 89.129 30.743" fill="#D50037"/>
</svg>
