<svg width="713" height="779" viewBox="0 0 713 779" fill="none" xmlns="http://www.w3.org/2000/svg">
<path d="M36.994 372.692C37.0192 372.903 37.1231 373.096 37.2847 373.234C37.4464 373.371 37.654 373.442 37.866 373.433L73.866 371.94L122.429 407.821C122.574 407.928 122.749 407.986 122.929 407.986L130.748 407.948C147.705 407.867 187.415 407.677 188.388 407.677C189.026 407.685 194.17 408.866 206.695 412.154C206.847 412.194 207.008 412.191 207.159 412.144C207.309 412.097 207.444 412.01 207.547 411.89L218.956 398.679L227.324 398.121C227.532 398.107 227.728 398.017 227.874 397.867C228.019 397.717 228.104 397.518 228.111 397.309C228.663 381.363 229.183 378.947 229.383 378.649C229.583 378.351 231.412 377.058 243.908 371.775C244.023 371.727 244.125 371.654 244.208 371.561L255.033 359.497L273.033 361.023C273.146 361.033 273.259 361.02 273.366 360.984C273.474 360.949 273.573 360.893 273.658 360.818L289.988 346.562C290.105 346.46 290.192 346.326 290.238 346.177C290.285 346.028 290.289 345.869 290.25 345.718C290.25 345.71 290.243 345.703 290.241 345.696L290.415 345.734C290.544 345.763 290.678 345.761 290.806 345.728C290.934 345.695 291.052 345.633 291.152 345.546L293.063 343.878L309.249 354.344C309.365 354.31 309.487 354.301 309.606 354.319C309.725 354.336 309.84 354.379 309.941 354.444C310.043 354.51 310.129 354.596 310.193 354.698C310.258 354.8 310.3 354.915 310.317 355.034L334.35 370.573C334.48 370.657 334.63 370.704 334.785 370.708L346.158 371.016L355.888 388.045C355.956 388.164 356.052 388.264 356.167 388.338C356.282 388.411 356.414 388.456 356.55 388.467C360.928 388.835 365.243 389.073 367.542 389.073C367.904 389.073 368.222 389.067 368.491 389.055C368.609 389.05 368.724 389.021 368.83 388.969C368.936 388.916 369.03 388.842 369.105 388.752C369.181 388.661 369.236 388.555 369.268 388.442C369.3 388.328 369.308 388.209 369.291 388.092C368.219 380.701 363.614 343.792 361.684 328.27L361.672 328.17L369.322 307.361C369.388 307.181 369.391 306.983 369.33 306.801L357.086 270.367C356.966 270.327 356.857 270.26 356.768 270.171C356.678 270.082 356.611 269.974 356.571 269.854C356.531 269.735 356.519 269.607 356.536 269.482C356.553 269.357 356.6 269.238 356.671 269.134L357.11 268.402C357.2 268.252 357.241 268.077 357.227 267.902L357.145 266.902C357.193 266.924 357.243 266.941 357.294 266.953C357.468 266.993 357.651 266.977 357.815 266.907C357.979 266.836 358.117 266.715 358.208 266.561C359.037 265.161 362.886 258.631 363.917 256.434C364.071 256.283 364.161 256.077 364.166 255.861C364.166 255.845 364.166 255.831 364.166 255.814C364.165 255.798 364.165 255.782 364.166 255.765V255.747C364.166 255.742 364.166 255.737 364.166 255.732C364.429 253.141 368.51 226.325 369.755 218.169L369.798 217.887L369.989 217.853C370.027 217.733 370.097 217.626 370.191 217.542C370.286 217.459 370.401 217.402 370.524 217.379C370.648 217.355 370.776 217.365 370.894 217.408C371.012 217.451 371.117 217.525 371.197 217.622C371.247 217.622 371.297 217.618 371.346 217.609L435.432 206.068C435.525 206.05 435.615 206.016 435.697 205.968L466.938 188.338C466.901 188.231 466.9 188.115 466.934 188.007C466.969 187.899 467.037 187.805 467.13 187.738C467.222 187.672 467.333 187.638 467.446 187.64C467.56 187.642 467.669 187.681 467.759 187.75C467.904 187.75 468.047 187.713 468.173 187.641L541.073 146.5C541.266 146.393 541.409 146.214 541.47 146.002C541.531 145.79 541.506 145.562 541.4 145.368C541.409 145.369 541.417 145.369 541.426 145.368C541.578 145.342 541.719 145.275 541.835 145.174C541.951 145.073 542.037 144.942 542.084 144.795C542.62 143.125 555.221 103.877 555.57 102.529C555.689 102.211 557.048 100.291 559.608 96.8232C559.69 96.7122 559.744 96.5827 559.764 96.4462C559.784 96.3097 559.77 96.1702 559.724 96.0402L559.692 95.9512C559.733 95.9572 559.775 95.9602 559.817 95.9602C559.949 95.9602 560.078 95.9293 560.196 95.8701C560.314 95.8109 560.416 95.725 560.494 95.6192C564.306 90.4812 570.477 82.2812 579.361 70.5522C591.03 55.1522 602.761 39.7632 602.861 39.6352L602.928 39.5462L624.606 30.9972C624.71 30.956 624.806 30.8944 624.886 30.8159C624.966 30.7374 625.03 30.6437 625.074 30.5402L634.042 9.27223C634.104 9.12415 634.123 8.96132 634.096 8.80293C634.069 8.64454 633.997 8.49718 633.889 8.37823C633.781 8.25927 633.641 8.17367 633.486 8.1315C633.331 8.08934 633.167 8.09237 633.014 8.14023L589.814 21.5982L572.535 16.4982C572.409 16.4617 572.277 16.4548 572.148 16.4782C572.019 16.5017 571.898 16.5547 571.793 16.6332C571.748 16.5105 571.675 16.4 571.58 16.3104C571.485 16.2208 571.37 16.1547 571.245 16.1172L571.106 16.0762C571.031 16.0542 570.954 16.0424 570.876 16.0412L539.176 15.7422L529.457 8.15123C529.298 8.02454 529.097 7.96083 528.894 7.97223L457.728 11.6852C457.614 11.6923 457.503 11.7225 457.401 11.7741C457.299 11.8257 457.209 11.8976 457.136 11.9852C457.086 11.8559 457.006 11.7409 456.901 11.6502C456.796 11.5595 456.671 11.496 456.536 11.4652L419.751 3.02223C419.6 2.98761 419.442 2.9954 419.295 3.04473C419.148 3.09406 419.017 3.18302 418.917 3.30182C418.818 3.42062 418.752 3.56465 418.729 3.71804C418.706 3.87144 418.726 4.02826 418.786 4.17123L423.757 15.9782C423.801 16.082 423.865 16.176 423.945 16.2547C424.026 16.3334 424.121 16.3951 424.226 16.4362L438.626 22.0832L429.364 28.6972L403.364 20.1312C403.253 20.0949 403.137 20.0818 403.021 20.0928C402.905 20.1038 402.793 20.1387 402.691 20.1952L355.148 46.6062C355.027 46.6732 354.925 46.7687 354.85 46.8845C354.775 47.0003 354.73 47.1328 354.718 47.2702L352.982 67.2322C352.955 67.1232 352.921 66.9902 352.875 66.8152C352.839 66.6803 352.77 66.5563 352.675 66.4542L337.219 49.8742C337.071 49.7152 336.868 49.6192 336.651 49.6062L299.366 47.4322C299.216 47.4228 299.066 47.4541 298.932 47.5227C298.798 47.5914 298.685 47.6948 298.605 47.8222L278.356 79.7342H278.316C278.13 79.7343 277.95 79.7956 277.803 79.9086C277.656 80.0216 277.55 80.18 277.502 80.3592C277.484 80.4301 277.476 80.5031 277.477 80.5762L275.988 79.7702C275.87 79.7072 275.739 79.6729 275.606 79.6702L252.422 79.1242C252.286 79.1207 252.152 79.1501 252.03 79.2101C251.908 79.27 251.802 79.3586 251.722 79.4682L246.822 86.1392C246.75 86.2377 246.701 86.3506 246.677 86.4701C246.653 86.5895 246.655 86.7128 246.684 86.8312C246.562 86.8392 246.443 86.8737 246.336 86.9323C246.229 86.9908 246.136 87.072 246.063 87.1702L225.932 114.577C225.838 114.705 225.783 114.856 225.771 115.013L223.671 143.19C223.659 143.344 223.691 143.498 223.762 143.635C223.745 143.635 223.727 143.641 223.71 143.647L207.684 149.397C207.52 149.456 207.378 149.564 207.278 149.707L198.83 161.776H191.576C191.398 161.777 191.225 161.833 191.082 161.938C190.938 162.042 190.831 162.189 190.776 162.358C190.76 162.407 190.749 162.457 190.743 162.507L189.964 161.939C189.819 161.833 189.644 161.777 189.464 161.777H152.042C151.914 161.777 151.787 161.806 151.672 161.863C151.557 161.919 151.456 162 151.378 162.101C151.299 162.202 151.244 162.32 151.217 162.445C151.191 162.57 151.193 162.7 151.224 162.824L157.953 189.737L123.69 228.587L43.896 230.442C43.6808 230.447 43.4757 230.534 43.3227 230.686C43.1697 230.837 43.0803 231.041 43.073 231.256L40.587 303.341C40.5821 303.484 40.6135 303.625 40.6782 303.752C40.7429 303.88 40.8388 303.988 40.957 304.068C50.237 310.354 60.216 317.633 60.85 318.928C61.0565 319.527 61.1504 320.159 61.127 320.792C61.1282 320.905 61.1518 321.015 61.1964 321.118C61.2411 321.221 61.3059 321.315 61.387 321.392C61.3018 321.465 61.2323 321.555 61.1825 321.656C61.1326 321.756 61.1036 321.866 61.097 321.978C60.9975 323.428 60.8078 324.87 60.529 326.296L35.197 355.642C35.12 355.731 35.0624 355.835 35.028 355.948C34.9935 356.06 34.983 356.178 34.997 356.295L36.994 372.692Z" fill="#5D7CB2" stroke="white" stroke-width="5"/>
<path d="M614.494 458.359C605.616 451.706 596.655 445.059 594.817 443.695V435.922C594.817 435.811 594.795 435.7 594.753 435.597C594.71 435.494 594.647 435.401 594.568 435.322C594.559 435.314 594.548 435.307 594.538 435.299C594.625 435.221 594.695 435.125 594.743 435.018C594.791 434.911 594.816 434.795 594.816 434.678V426.428C596.484 424.656 602.246 418.437 602.859 416.392C603.173 415.347 603.777 410.6 604.659 403.478C605.198 399.145 605.859 393.799 606.101 392.778C607.093 391.911 613.601 387.454 617.639 384.742C617.766 384.657 617.867 384.539 617.932 384.4C617.996 384.262 618.023 384.108 618.007 383.956L616.616 370.388C616.595 370.181 616.497 369.988 616.342 369.848C616.187 369.708 615.986 369.631 615.777 369.631H594.98L586.505 363.274C586.359 363.165 586.181 363.106 585.999 363.106H574.073L566.58 351.122C566.5 350.994 566.387 350.89 566.253 350.821C566.119 350.751 565.969 350.719 565.818 350.727L549.558 351.627L538.112 336.264C538.014 336.132 537.879 336.032 537.724 335.976C537.569 335.92 537.401 335.91 537.241 335.948L511.741 342.02L485.08 318.776C484.981 318.69 484.864 318.629 484.737 318.596L451.599 310.004C451.538 309.989 451.476 309.98 451.413 309.978L370.734 307.522C370.557 307.518 370.384 307.569 370.237 307.668C370.091 307.767 369.979 307.909 369.917 308.074L362.561 328.074C362.515 328.2 362.499 328.336 362.516 328.469C363.737 338.281 366.289 358.714 368.116 373.058C368.213 373.125 368.296 373.212 368.357 373.313C368.419 373.414 368.458 373.527 368.473 373.644C368.488 373.761 368.478 373.88 368.444 373.993C368.409 374.106 368.352 374.211 368.274 374.3C370.025 388.007 370.174 388.726 370.22 388.963C370.22 388.982 370.228 389 370.233 389.018C370.264 389.134 370.252 389.257 370.198 389.364C370.147 389.465 370.118 389.575 370.111 389.687C369.978 389.652 369.838 389.65 369.704 389.681C368.813 389.836 367.908 389.9 367.004 389.87C364.623 389.87 360.968 389.653 355.828 389.206L355.62 389.188L345.92 372.213C345.848 372.088 345.745 371.983 345.621 371.908C345.497 371.834 345.356 371.793 345.211 371.789L334.301 371.489L293.674 345.222C293.52 345.123 293.338 345.076 293.155 345.089C292.973 345.102 292.799 345.175 292.661 345.295L273.661 361.88L255.78 360.366C255.65 360.355 255.519 360.374 255.397 360.422C255.276 360.471 255.167 360.546 255.08 360.643L244.56 372.367L244.478 372.402C238.548 374.902 231.787 377.935 230.337 378.88C230.242 378.942 230.161 379.022 230.098 379.115C230.035 379.209 229.991 379.314 229.97 379.425C229.57 381.502 229.085 392.201 228.876 398.457L228.864 398.819L219.7 399.43C219.589 399.438 219.48 399.467 219.38 399.517C219.28 399.566 219.191 399.636 219.118 399.72L212.071 407.88C212.09 408.001 212.083 408.124 212.05 408.241C212.017 408.359 211.958 408.467 211.878 408.56C211.799 408.652 211.7 408.726 211.588 408.776C211.477 408.826 211.356 408.851 211.234 408.849L207.487 413.187L207.246 413.124C207.075 413.079 190.105 408.617 188.446 408.478H188.375C187.852 408.478 182.157 408.505 174.316 408.542C174.143 408.543 173.974 408.597 173.832 408.697C173.691 408.798 173.584 408.939 173.526 409.102C173.513 409.141 173.502 409.181 173.494 409.221L172.911 408.742C172.76 408.618 172.57 408.55 172.375 408.55C153.016 408.641 122.975 408.785 122.534 408.788H122.401L73.858 372.922C73.7029 372.809 73.5141 372.751 73.322 372.757L38.097 374.222C37.9808 374.227 37.867 374.256 37.7626 374.307C37.6582 374.358 37.5655 374.43 37.4903 374.519C37.4152 374.608 37.3592 374.711 37.3259 374.822C37.2926 374.934 37.2828 375.051 37.297 375.166L37.731 378.732L17.08 390.882C16.916 390.979 16.7894 391.128 16.721 391.305C16.6525 391.483 16.6462 391.679 16.703 391.86L35.244 451.191L27.344 466.923C27.2827 467.046 27.2526 467.183 27.2563 467.32C27.26 467.458 27.2973 467.592 27.365 467.712C27.2287 467.729 27.0986 467.779 26.9862 467.857C26.8739 467.936 26.7828 468.042 26.721 468.164L2.76897 515.822C2.70922 515.942 2.67871 516.074 2.67997 516.207L2.99097 559.084C2.99228 559.26 3.04873 559.432 3.1524 559.574C3.25607 559.717 3.40175 559.823 3.56897 559.878L58.559 578.105L70.944 600.857C71.0164 600.99 71.1233 601.101 71.2536 601.179C71.3838 601.256 71.5325 601.297 71.684 601.297C71.7367 601.297 71.7892 601.292 71.841 601.282C71.8919 601.273 71.9418 601.258 71.99 601.239L71.867 602.22C71.8462 602.396 71.8812 602.574 71.967 602.728L85.127 626.905C85.2189 627.073 85.3652 627.205 85.5418 627.279C85.7183 627.353 85.9148 627.365 86.099 627.312L103.193 622.428L144.958 642.389L156.402 659.066C156.533 659.07 156.661 659.105 156.776 659.168C156.891 659.23 156.99 659.319 157.064 659.427C157.138 659.535 157.186 659.66 157.203 659.789C157.221 659.919 157.207 660.051 157.164 660.175L177.455 689.742C177.567 689.905 177.732 690.023 177.922 690.076C178.111 690.13 178.314 690.115 178.494 690.034L209.994 675.966C212.372 678.127 224.735 689.36 237.047 700.493C264.754 725.546 265.188 725.693 265.504 725.793C266.439 726.105 280.231 726.354 286.526 726.452L301.041 742.093C301.151 742.212 301.293 742.297 301.451 742.337C301.608 742.377 301.773 742.371 301.927 742.319C301.947 742.312 301.963 742.299 301.982 742.291L301.946 742.648C301.934 742.767 301.947 742.888 301.986 743.001C302.024 743.115 302.086 743.219 302.167 743.307L322.323 765.027C322.443 765.157 322.6 765.245 322.773 765.28L377.363 776.38C377.418 776.391 377.475 776.397 377.531 776.397C377.64 776.397 377.749 776.376 377.85 776.334L457.542 743.711C457.747 743.628 457.91 743.467 457.998 743.264C458.085 743.061 458.089 742.831 458.009 742.625L432.517 677.073C432.396 677.078 432.277 677.047 432.174 676.984C432.072 676.92 431.991 676.827 431.942 676.716C431.893 676.606 431.879 676.484 431.901 676.365C431.923 676.246 431.98 676.137 432.065 676.051C432.066 676.024 432.066 675.997 432.065 675.97L440.665 664.201C440.737 664.104 440.786 663.992 440.81 663.873C440.835 663.755 440.833 663.632 440.806 663.514L438.124 651.89L444.456 646.378C444.546 646.299 444.618 646.202 444.668 646.093C444.717 645.984 444.743 645.866 444.743 645.746C444.78 645.752 444.817 645.755 444.855 645.755C445.058 645.755 445.255 645.681 445.408 645.547L457.04 635.423C457.144 635.333 457.224 635.218 457.273 635.089C457.323 634.961 457.34 634.822 457.323 634.685C457.323 634.655 457.316 634.621 457.311 634.585H457.317C457.46 634.64 457.615 634.655 457.766 634.628C457.917 634.601 458.058 634.534 458.173 634.433L462.708 630.486L509.981 625.386C510.112 625.372 510.239 625.328 510.35 625.256C510.461 625.184 510.553 625.087 510.62 624.973C520.12 608.673 534.599 583.995 535.55 582.864C535.633 582.781 535.85 582.564 536.186 582.239C559.194 559.646 559.35 557.618 559.409 556.854C559.493 555.768 559.821 552.259 560.17 548.545C560.608 543.864 561.105 538.56 561.239 536.745C561.154 536.663 561.088 536.564 561.046 536.454C561.004 536.344 560.987 536.226 560.995 536.108C561.003 535.99 561.038 535.876 561.095 535.773C561.153 535.67 561.232 535.581 561.328 535.512C561.664 532.426 563.42 519.77 563.859 516.612L593.171 516.212C593.386 516.209 593.592 516.124 593.746 515.974C593.846 515.874 604.171 505.862 614.334 495.874C620.305 490.008 625.055 485.3 628.45 481.874C635.177 475.096 635.141 474.953 634.99 474.35C634.877 473.898 634.79 473.542 614.508 458.344" fill="#8CBFF1"/>
<path d="M614.494 458.359C605.616 451.706 596.655 445.059 594.817 443.695V435.922C594.817 435.811 594.795 435.7 594.753 435.597C594.71 435.494 594.647 435.401 594.568 435.322C594.559 435.314 594.548 435.307 594.538 435.299C594.625 435.221 594.695 435.125 594.743 435.018C594.791 434.911 594.816 434.795 594.816 434.678V426.428C596.484 424.656 602.246 418.437 602.859 416.392C603.173 415.347 603.777 410.6 604.659 403.478C605.198 399.145 605.859 393.799 606.101 392.778C607.093 391.911 613.601 387.454 617.639 384.742C617.766 384.657 617.867 384.539 617.932 384.4C617.996 384.262 618.022 384.108 618.007 383.956L616.616 370.388C616.595 370.181 616.497 369.988 616.342 369.848C616.187 369.708 615.986 369.631 615.777 369.631H594.98L586.505 363.274C586.359 363.165 586.181 363.106 585.999 363.106H574.073L566.58 351.122C566.5 350.994 566.387 350.89 566.253 350.821C566.119 350.751 565.969 350.719 565.818 350.727L549.558 351.627L538.112 336.264C538.014 336.132 537.879 336.032 537.724 335.976C537.569 335.92 537.401 335.91 537.241 335.948L511.741 342.02L485.08 318.776C484.981 318.69 484.864 318.629 484.737 318.596L451.599 310.004C451.538 309.989 451.476 309.98 451.413 309.978L370.734 307.522C370.557 307.518 370.384 307.569 370.237 307.668C370.091 307.767 369.979 307.909 369.917 308.074L362.561 328.074C362.515 328.2 362.499 328.336 362.516 328.469C363.737 338.281 366.289 358.714 368.116 373.058C368.213 373.125 368.296 373.212 368.357 373.313C368.419 373.414 368.458 373.527 368.473 373.644C368.488 373.761 368.478 373.88 368.444 373.993C368.409 374.106 368.352 374.211 368.274 374.3C370.025 388.007 370.174 388.726 370.22 388.963C370.22 388.982 370.228 389 370.233 389.018C370.264 389.134 370.252 389.257 370.198 389.364C370.147 389.465 370.118 389.575 370.111 389.687C369.978 389.652 369.838 389.65 369.704 389.681C368.813 389.836 367.908 389.9 367.004 389.87C364.623 389.87 360.968 389.653 355.828 389.206L355.62 389.188L345.92 372.213C345.848 372.088 345.745 371.983 345.621 371.908C345.497 371.834 345.356 371.793 345.211 371.789L334.301 371.489L293.674 345.222C293.52 345.123 293.338 345.076 293.155 345.089C292.972 345.102 292.799 345.175 292.661 345.295L273.661 361.88L255.78 360.366C255.65 360.355 255.519 360.374 255.397 360.422C255.276 360.471 255.167 360.546 255.08 360.643L244.56 372.367L244.478 372.402C238.548 374.902 231.787 377.935 230.337 378.88C230.242 378.942 230.161 379.022 230.098 379.115C230.035 379.209 229.991 379.314 229.97 379.425C229.57 381.502 229.085 392.201 228.876 398.457L228.864 398.819L219.7 399.43C219.589 399.438 219.48 399.467 219.38 399.517C219.28 399.566 219.191 399.636 219.118 399.72L212.071 407.88C212.09 408.001 212.083 408.124 212.05 408.241C212.017 408.359 211.958 408.467 211.878 408.56C211.799 408.652 211.7 408.726 211.588 408.776C211.477 408.826 211.356 408.851 211.234 408.849L207.487 413.187L207.246 413.124C207.075 413.079 190.105 408.617 188.446 408.478H188.375C187.852 408.478 182.157 408.505 174.316 408.542C174.143 408.543 173.974 408.597 173.832 408.697C173.691 408.798 173.584 408.939 173.526 409.102C173.513 409.141 173.502 409.181 173.494 409.221L172.911 408.742C172.76 408.618 172.57 408.55 172.375 408.55C153.016 408.641 122.975 408.785 122.534 408.788H122.401L73.858 372.922C73.7029 372.809 73.5141 372.751 73.322 372.757L38.097 374.222C37.9808 374.227 37.867 374.256 37.7626 374.307C37.6582 374.358 37.5655 374.43 37.4903 374.519C37.4152 374.608 37.3592 374.711 37.3259 374.822C37.2926 374.934 37.2828 375.051 37.297 375.166L37.731 378.732L17.08 390.882C16.916 390.979 16.7894 391.128 16.721 391.305C16.6525 391.483 16.6462 391.679 16.703 391.86L35.244 451.191L27.344 466.923C27.2827 467.046 27.2526 467.183 27.2563 467.32C27.26 467.458 27.2973 467.592 27.365 467.712C27.2287 467.729 27.0986 467.779 26.9862 467.857C26.8739 467.936 26.7828 468.042 26.721 468.164L2.76897 515.822C2.70922 515.942 2.67871 516.074 2.67997 516.207L2.99097 559.084C2.99228 559.26 3.04873 559.432 3.1524 559.574C3.25607 559.717 3.40175 559.823 3.56897 559.878L58.559 578.105L70.944 600.857C71.0164 600.99 71.1233 601.101 71.2536 601.179C71.3838 601.256 71.5325 601.297 71.684 601.297C71.7367 601.297 71.7892 601.292 71.841 601.282C71.8919 601.273 71.9418 601.258 71.99 601.239L71.867 602.22C71.8462 602.396 71.8812 602.574 71.967 602.728L85.127 626.905C85.2189 627.073 85.3652 627.205 85.5418 627.279C85.7183 627.353 85.9148 627.365 86.099 627.312L103.193 622.428L144.958 642.389L156.402 659.066C156.533 659.07 156.661 659.105 156.776 659.168C156.891 659.231 156.99 659.319 157.064 659.427C157.138 659.536 157.186 659.66 157.203 659.789C157.221 659.919 157.207 660.051 157.164 660.175L177.455 689.742C177.567 689.905 177.732 690.023 177.922 690.076C178.111 690.13 178.314 690.115 178.494 690.034L209.994 675.966C212.372 678.127 224.735 689.36 237.047 700.493C264.754 725.546 265.188 725.693 265.504 725.793C266.439 726.105 280.231 726.354 286.526 726.452L301.041 742.093C301.151 742.212 301.294 742.297 301.451 742.337C301.608 742.377 301.773 742.371 301.927 742.319C301.947 742.312 301.963 742.299 301.982 742.291L301.946 742.648C301.934 742.767 301.947 742.888 301.986 743.001C302.024 743.115 302.086 743.219 302.167 743.307L322.323 765.027C322.443 765.157 322.6 765.245 322.773 765.28L377.363 776.38C377.418 776.391 377.475 776.397 377.531 776.397C377.64 776.397 377.749 776.376 377.85 776.334L457.542 743.711C457.747 743.628 457.91 743.467 457.998 743.264C458.085 743.061 458.089 742.831 458.009 742.625L432.517 677.073C432.396 677.078 432.277 677.047 432.174 676.984C432.072 676.92 431.991 676.827 431.942 676.716C431.893 676.606 431.879 676.484 431.901 676.365C431.923 676.246 431.98 676.137 432.065 676.051C432.066 676.024 432.066 675.997 432.065 675.97L440.665 664.201C440.737 664.104 440.786 663.992 440.81 663.873C440.835 663.755 440.833 663.632 440.806 663.514L438.124 651.89L444.456 646.378C444.546 646.299 444.618 646.202 444.668 646.093C444.717 645.984 444.743 645.866 444.743 645.746C444.78 645.752 444.817 645.755 444.855 645.755C445.058 645.755 445.255 645.681 445.408 645.547L457.04 635.423C457.144 635.333 457.224 635.218 457.273 635.089C457.323 634.961 457.34 634.822 457.323 634.685C457.323 634.655 457.316 634.621 457.311 634.585H457.317C457.46 634.64 457.615 634.655 457.766 634.628C457.917 634.601 458.058 634.534 458.173 634.433L462.708 630.486L509.981 625.386C510.112 625.372 510.239 625.328 510.35 625.256C510.461 625.184 510.553 625.087 510.62 624.973C520.12 608.673 534.599 583.995 535.55 582.864C535.633 582.781 535.85 582.564 536.186 582.239C559.194 559.646 559.35 557.618 559.409 556.854C559.493 555.768 559.821 552.259 560.17 548.545C560.608 543.864 561.105 538.56 561.239 536.745C561.154 536.663 561.088 536.564 561.046 536.454C561.004 536.344 560.987 536.226 560.995 536.108C561.003 535.99 561.038 535.876 561.095 535.773C561.153 535.67 561.232 535.581 561.328 535.512C561.664 532.426 563.42 519.77 563.859 516.612L593.171 516.212C593.386 516.209 593.592 516.124 593.746 515.974C593.846 515.874 604.171 505.862 614.334 495.874C620.305 490.008 625.055 485.3 628.45 481.874C635.177 475.096 635.141 474.953 634.99 474.35C634.877 473.898 634.79 473.542 614.508 458.344" stroke="white" stroke-width="5"/>
<path d="M703.404 189.433C703.576 177.133 703.772 163.183 703.772 162.308C703.794 161.066 707.494 136.808 709.972 120.799C709.999 120.625 709.971 120.448 709.892 120.29L692.392 85.6053L697.42 77.6193C697.531 77.443 697.573 77.2318 697.538 77.0265C697.502 76.8211 697.392 76.6362 697.228 76.5073L684.178 66.2543C684.061 66.1623 683.921 66.1029 683.773 66.0824C683.626 66.0618 683.475 66.0808 683.337 66.1373L671.931 70.8163L670.479 68.0223C670.411 67.892 670.31 67.7818 670.186 67.7027C670.062 67.6235 669.92 67.5783 669.773 67.5713L669.781 67.5583C669.856 67.4346 669.898 67.2935 669.903 67.1489C669.907 67.0042 669.875 66.8608 669.808 66.7323L664.408 56.3553L670.729 44.3173C670.782 44.2156 670.814 44.1041 670.823 43.9896C670.831 43.8751 670.816 43.7601 670.779 43.6516C670.742 43.5431 670.682 43.4434 670.605 43.3585C670.528 43.2737 670.434 43.2056 670.329 43.1583L657.454 37.3063L662.345 27.5253C662.411 27.3923 662.442 27.2441 662.432 27.0957C662.423 26.9473 662.375 26.804 662.292 26.6803L647.394 4.30834C647.293 4.15683 647.145 4.04213 646.974 3.98139C646.802 3.92065 646.615 3.91712 646.441 3.97134L636.134 7.18134C636.017 7.21763 635.909 7.27901 635.818 7.36121C635.727 7.44342 635.655 7.54447 635.607 7.65734L625.555 31.4953L603.661 40.1293C603.518 40.1857 603.393 40.2801 603.299 40.4023C587.541 61.0683 568.088 86.7203 560.156 97.4453C560.074 97.5564 560.02 97.686 560 97.8227C559.979 97.9594 559.993 98.0991 560.039 98.2293L560.072 98.3213H560.066C559.915 98.2996 559.761 98.3191 559.62 98.3779C559.479 98.4367 559.357 98.5326 559.266 98.6553C557.605 100.914 556.666 102.227 556.405 102.669C556.369 102.73 556.341 102.795 556.321 102.863C555.451 105.835 542.899 144.918 542.364 146.582L542.309 146.754C542.288 146.823 542.276 146.894 542.273 146.966C542.086 146.936 541.894 146.969 541.729 147.061L488.587 177.05C488.489 177.106 488.402 177.181 488.334 177.272C488.265 177.362 488.215 177.465 488.187 177.574C488.187 177.582 488.187 177.59 488.187 177.598C488.076 177.561 487.958 177.547 487.842 177.558C487.725 177.569 487.612 177.604 487.51 177.661L435.866 206.805L371.104 218.465C370.931 218.496 370.772 218.58 370.649 218.706C370.527 218.831 370.446 218.992 370.419 219.165C368.444 232.123 365.073 254.419 364.968 255.789C364.968 255.807 364.968 255.825 364.968 255.843C364.885 256.205 364.75 256.553 364.568 256.876C364.624 256.987 364.654 257.11 364.654 257.235C364.654 257.359 364.626 257.482 364.57 257.594C364.515 257.705 364.434 257.802 364.335 257.877C364.235 257.952 364.119 258.002 363.997 258.024C362.861 260.215 360.759 263.873 357.751 268.897C357.689 269.002 357.65 269.118 357.637 269.239C357.623 269.36 357.637 269.482 357.675 269.597L369.956 306.14C370.011 306.304 370.115 306.446 370.253 306.549C370.391 306.651 370.558 306.709 370.73 306.714L451.63 309.175L473.166 314.758C473.299 314.793 473.438 314.794 473.571 314.763C473.705 314.731 473.829 314.667 473.932 314.577L474.013 314.506V314.514C474.048 314.664 474.124 314.8 474.231 314.91C474.338 315.02 474.473 315.098 474.622 315.136L485.322 317.909L511.632 340.854C511.733 340.943 511.854 341.005 511.984 341.037C512.114 341.07 512.25 341.07 512.381 341.039L538.104 334.919L549.669 350.441C549.752 350.553 549.862 350.642 549.988 350.701C550.114 350.76 550.253 350.787 550.392 350.779L566.739 349.871L574.269 361.919C574.344 362.041 574.45 362.142 574.575 362.212C574.7 362.282 574.841 362.319 574.984 362.319H586.547L595.022 368.675C595.168 368.785 595.346 368.844 595.528 368.844H615.528C615.691 368.844 615.851 368.797 615.987 368.709C616.124 368.62 616.232 368.493 616.298 368.344L634.498 353.113C634.584 353.042 634.654 352.954 634.706 352.855C634.757 352.756 634.788 352.648 634.798 352.537L637.281 322.737C637.195 322.652 637.129 322.548 637.087 322.434C637.045 322.32 637.029 322.199 637.039 322.078C637.049 321.957 637.086 321.84 637.146 321.734C637.206 321.629 637.288 321.538 637.387 321.467L637.848 315.936L650.148 314.472L668.097 315.4C668.288 315.41 668.476 315.354 668.631 315.243C668.787 315.132 668.9 314.971 668.952 314.787L675.723 290.779L707.554 261.112C707.639 261.033 707.707 260.937 707.753 260.83C707.799 260.723 707.823 260.608 707.822 260.492C707.822 260.375 707.797 260.26 707.75 260.154C707.703 260.047 707.634 259.952 707.548 259.873L697.131 250.349C697.959 248.582 700.597 242.925 703.131 237.224C709.468 222.945 709.021 222.349 708.589 221.772C707.919 220.879 704.145 211.372 703.276 208.388C703.174 208.345 703.085 208.275 703.02 208.185C702.954 208.096 702.914 207.99 702.904 207.88C702.894 207.769 702.914 207.658 702.962 207.558C703.009 207.458 703.084 207.373 703.176 207.311C703.204 205.055 703.307 197.628 703.422 189.439" fill="#8CBFF1"/>
<path d="M703.404 189.433C703.576 177.133 703.772 163.183 703.772 162.308C703.794 161.066 707.494 136.808 709.972 120.799C709.999 120.625 709.971 120.448 709.892 120.29L692.392 85.6053L697.42 77.6193C697.531 77.443 697.573 77.2318 697.538 77.0265C697.502 76.8211 697.392 76.6362 697.228 76.5073L684.178 66.2543C684.061 66.1623 683.921 66.1029 683.773 66.0824C683.626 66.0618 683.475 66.0808 683.337 66.1373L671.931 70.8163L670.479 68.0223C670.411 67.892 670.31 67.7818 670.186 67.7027C670.062 67.6235 669.92 67.5783 669.773 67.5713L669.781 67.5583C669.856 67.4346 669.898 67.2935 669.903 67.1489C669.907 67.0042 669.875 66.8608 669.808 66.7323L664.408 56.3553L670.729 44.3173C670.782 44.2156 670.814 44.1041 670.823 43.9896C670.831 43.8751 670.816 43.7601 670.779 43.6516C670.742 43.5431 670.682 43.4434 670.605 43.3585C670.528 43.2737 670.434 43.2056 670.329 43.1583L657.454 37.3063L662.345 27.5253C662.411 27.3923 662.442 27.2441 662.432 27.0957C662.423 26.9473 662.375 26.804 662.292 26.6803L647.394 4.30834C647.293 4.15683 647.145 4.04213 646.974 3.98139C646.802 3.92065 646.615 3.91712 646.441 3.97134L636.134 7.18134C636.017 7.21763 635.909 7.27901 635.818 7.36121C635.727 7.44342 635.655 7.54447 635.607 7.65734L625.555 31.4953L603.661 40.1293C603.518 40.1857 603.393 40.2801 603.299 40.4023C587.541 61.0683 568.088 86.7203 560.156 97.4453C560.074 97.5564 560.02 97.686 560 97.8227C559.979 97.9594 559.993 98.0991 560.039 98.2293L560.072 98.3213H560.066C559.915 98.2996 559.761 98.3191 559.62 98.3779C559.479 98.4367 559.357 98.5326 559.266 98.6553C557.605 100.914 556.666 102.227 556.405 102.669C556.369 102.73 556.341 102.795 556.321 102.863C555.451 105.835 542.899 144.918 542.364 146.582L542.309 146.754C542.288 146.823 542.276 146.894 542.273 146.966C542.086 146.936 541.894 146.969 541.729 147.061L488.587 177.05C488.489 177.106 488.402 177.181 488.334 177.272C488.265 177.362 488.215 177.465 488.187 177.574C488.187 177.582 488.187 177.59 488.187 177.598C488.076 177.561 487.958 177.547 487.842 177.558C487.725 177.569 487.612 177.604 487.51 177.661L435.866 206.805L371.104 218.465C370.931 218.496 370.772 218.58 370.649 218.706C370.527 218.831 370.446 218.992 370.419 219.165C368.444 232.123 365.073 254.419 364.968 255.789C364.968 255.807 364.968 255.825 364.968 255.843C364.885 256.205 364.75 256.553 364.568 256.876C364.624 256.987 364.654 257.11 364.654 257.235C364.654 257.359 364.626 257.482 364.57 257.594C364.515 257.705 364.434 257.802 364.335 257.877C364.235 257.952 364.119 258.002 363.997 258.024C362.861 260.215 360.759 263.873 357.751 268.897C357.689 269.002 357.65 269.118 357.637 269.239C357.623 269.36 357.637 269.482 357.675 269.597L369.956 306.14C370.011 306.304 370.115 306.446 370.253 306.549C370.391 306.651 370.558 306.709 370.73 306.714L451.63 309.175L473.166 314.758C473.299 314.793 473.438 314.794 473.571 314.763C473.705 314.731 473.829 314.667 473.932 314.577L474.013 314.506V314.514C474.048 314.664 474.124 314.8 474.231 314.91C474.338 315.02 474.473 315.098 474.622 315.136L485.322 317.909L511.632 340.854C511.733 340.942 511.854 341.005 511.984 341.037C512.114 341.07 512.25 341.07 512.381 341.039L538.104 334.919L549.669 350.441C549.752 350.553 549.862 350.642 549.988 350.701C550.114 350.76 550.253 350.787 550.392 350.779L566.739 349.871L574.269 361.919C574.344 362.041 574.45 362.142 574.575 362.212C574.7 362.282 574.841 362.319 574.984 362.319H586.547L595.022 368.675C595.168 368.785 595.345 368.844 595.528 368.844H615.528C615.691 368.844 615.851 368.797 615.987 368.709C616.124 368.62 616.232 368.493 616.298 368.344L634.498 353.113C634.584 353.042 634.654 352.954 634.706 352.855C634.757 352.756 634.788 352.648 634.798 352.537L637.281 322.737C637.195 322.652 637.129 322.548 637.087 322.434C637.045 322.32 637.029 322.199 637.039 322.078C637.049 321.957 637.086 321.84 637.146 321.734C637.206 321.629 637.288 321.538 637.387 321.467L637.848 315.936L650.148 314.472L668.097 315.4C668.288 315.41 668.476 315.354 668.631 315.243C668.787 315.132 668.9 314.971 668.952 314.787L675.723 290.779L707.554 261.112C707.639 261.033 707.707 260.937 707.753 260.83C707.799 260.723 707.823 260.608 707.822 260.492C707.822 260.375 707.797 260.26 707.75 260.154C707.703 260.047 707.634 259.952 707.548 259.873L697.131 250.349C697.959 248.582 700.597 242.925 703.131 237.224C709.468 222.945 709.021 222.349 708.589 221.772C707.919 220.879 704.145 211.372 703.276 208.388C703.174 208.345 703.085 208.275 703.02 208.185C702.954 208.096 702.914 207.99 702.904 207.88C702.894 207.769 702.914 207.658 702.962 207.558C703.009 207.458 703.084 207.373 703.176 207.311C703.204 205.055 703.307 197.628 703.422 189.439" stroke="white" stroke-width="5"/>
<path d="M539.672 221.543V220.094H554.036V221.543H547.673V221.648C547.673 223.79 551.306 225.092 554.267 225.323V226.772C551.285 226.52 548.156 225.407 546.833 223.706C545.489 225.428 542.339 226.562 539.378 226.772V225.323C542.318 225.134 545.972 223.769 545.972 221.648V221.543H539.672ZM538.391 230.132V228.662H555.317V230.132H547.673V232.379C550.067 232.463 551.873 232.82 553.028 233.492C553.952 234.038 554.456 234.794 554.456 235.823C554.456 236.831 553.952 237.608 553.028 238.175C551.747 238.931 549.668 239.246 546.875 239.246C544.082 239.246 541.982 238.931 540.701 238.175C539.777 237.608 539.294 236.831 539.294 235.823C539.294 234.794 539.777 234.038 540.701 233.492C541.835 232.82 543.641 232.463 545.993 232.4V230.132H538.391ZM540.995 235.823C540.995 236.306 541.247 236.705 541.73 236.999C542.654 237.566 544.376 237.839 546.875 237.839C549.374 237.839 551.096 237.566 552.02 236.999C552.524 236.705 552.755 236.306 552.755 235.823C552.755 235.361 552.524 234.962 552.02 234.647C551.096 234.08 549.374 233.807 546.875 233.807C544.376 233.807 542.654 234.08 541.73 234.647C541.247 234.962 540.995 235.361 540.995 235.823ZM559.264 223.181C559.264 222.152 559.705 221.354 560.419 220.787C561.364 220.073 562.792 219.758 564.325 219.758C565.837 219.758 567.265 220.073 568.21 220.787C568.924 221.354 569.365 222.152 569.365 223.181C569.365 224.231 568.924 225.029 568.21 225.554C567.265 226.289 565.837 226.625 564.325 226.625C562.792 226.625 561.364 226.289 560.419 225.554C559.705 225.029 559.264 224.231 559.264 223.181ZM560.881 223.181C560.881 223.79 561.154 224.252 561.595 224.567C562.204 225.05 563.191 225.26 564.325 225.26C565.438 225.26 566.425 225.05 567.055 224.567C567.517 224.252 567.748 223.79 567.748 223.181C567.748 222.593 567.517 222.131 567.055 221.795C566.425 221.333 565.438 221.102 564.325 221.102C563.191 221.102 562.204 221.333 561.595 221.795C561.154 222.131 560.881 222.593 560.881 223.181ZM564.325 229.502V233.093H562.624V229.502H558.466V228.074H567.202C568.63 228.074 570.037 227.948 571.087 227.591V228.935C569.89 229.439 568.168 229.502 566.32 229.502H564.325ZM574.321 234.227H572.641V232.463H568.294V231.119H572.641V219.884H574.321V234.227ZM574.678 238.889H560.356V233.723H562.057V237.419H574.678V238.889ZM592.821 224.42V221.585H579.717V220.094H594.501V224.252C594.501 226.079 594.333 228.011 594.039 229.334H592.359C592.674 227.969 592.821 226.079 592.821 224.42ZM578.814 232.799V231.308H595.53V232.799H587.991V238.994H586.29V232.799H578.814Z" fill="white"/>
<path d="M216.574 224.42C215.419 226.688 212.626 228.431 208.552 229.124V227.633C212.71 226.835 215.713 224.693 215.713 220.955V219.989H217.414V220.955C217.414 224.672 220.48 226.814 224.596 227.633V229.124C220.564 228.41 217.75 226.709 216.574 224.42ZM208.237 233.744V232.253H224.953V233.744H217.414V238.994H215.713V233.744H208.237ZM228.921 220.094H238.455V221.564H234.528V222.908C234.528 226.079 236.523 227.738 238.791 228.263V229.775C236.523 229.292 234.591 227.948 233.73 226.184C232.869 227.99 230.937 229.586 228.606 230.027V228.515C230.937 227.99 232.848 226.121 232.848 222.908V221.564H228.921V220.094ZM244.062 230.573H242.382V225.449H238.161V223.979H242.382V219.884H244.062V230.573ZM237.132 239.141C234.843 239.141 232.722 238.826 231.357 237.923C230.391 237.314 229.803 236.432 229.803 235.256C229.803 234.08 230.391 233.198 231.357 232.568C232.722 231.686 234.843 231.329 237.132 231.329C239.421 231.329 241.563 231.686 242.928 232.568C243.873 233.198 244.482 234.08 244.482 235.256C244.482 236.432 243.873 237.314 242.928 237.923C241.563 238.826 239.421 239.141 237.132 239.141ZM237.132 232.799C235.179 232.799 233.415 233.093 232.386 233.744C231.84 234.122 231.504 234.626 231.504 235.256C231.504 235.865 231.84 236.369 232.386 236.747C233.415 237.398 235.179 237.692 237.132 237.692C239.085 237.692 240.87 237.398 241.878 236.747C242.466 236.369 242.802 235.865 242.802 235.256C242.802 234.626 242.466 234.122 241.878 233.744C240.87 233.093 239.085 232.799 237.132 232.799ZM262.562 224.42V221.585H249.458V220.094H264.242V224.252C264.242 226.079 264.074 228.011 263.78 229.334H262.1C262.415 227.969 262.562 226.079 262.562 224.42ZM248.555 232.799V231.308H265.271V232.799H257.732V238.994H256.031V232.799H248.555Z" fill="white"/>
<path d="M338.472 510.495H349.476V508.08H351.156V516.018H336.792V508.08H338.472V510.495ZM349.476 514.611V511.923H338.472V514.611H349.476ZM335.511 519.651V518.223H352.437V519.651H345.024V523.095H343.344V519.651H335.511ZM338.472 521.772V525.3H351.534V526.749H336.792V521.772H338.472ZM364.574 517.173H356.048V508.08H365.057V509.571H357.728V515.703H364.973C366.842 515.703 368.27 515.409 369.236 514.695V507.87H370.916V512.238H373.793V513.729H370.916V518.559H369.236V516.081C368.291 516.858 366.737 517.173 364.574 517.173ZM356.888 523.242C356.888 522.15 357.413 521.289 358.295 520.68C359.597 519.756 361.676 519.315 364.154 519.315C366.632 519.315 368.711 519.756 369.992 520.68C370.874 521.289 371.399 522.15 371.399 523.242C371.399 524.334 370.874 525.195 369.992 525.825C368.711 526.728 366.632 527.127 364.154 527.127C361.676 527.127 359.597 526.728 358.295 525.825C357.413 525.195 356.888 524.334 356.888 523.242ZM358.589 523.242C358.589 523.83 358.904 524.355 359.492 524.754C360.395 525.384 362.033 525.678 364.154 525.678C366.254 525.678 367.892 525.384 368.837 524.754C369.404 524.355 369.698 523.83 369.698 523.242C369.698 522.633 369.404 522.108 368.837 521.73C367.892 521.1 366.254 520.785 364.154 520.785C362.033 520.785 360.395 521.1 359.492 521.73C358.904 522.108 358.589 522.633 358.589 523.242ZM389.941 512.406V509.571H376.837V508.08H391.621V512.238C391.621 514.065 391.453 515.997 391.159 517.32H389.479C389.794 515.955 389.941 514.065 389.941 512.406ZM375.934 520.785V519.294H392.65V520.785H385.111V526.98H383.41V520.785H375.934Z" fill="white"/>
</svg>
